{"asset":{"generator":"3D Builder","version":"2.0"},"scene":0,"scenes":[{"nodes":[0]}],"nodes":[{"mesh":0,"matrix":[1,0,0,0,0,-1.1920928955078125E-7,-0.99999988079071045,0,0,0.99999988079071045,-1.1920928955078125E-7,0,0,6.4620899742351412E-9,-6.0558318359937857E-9,1]}],"meshes":[{"primitives":[{"attributes":{"POSITION":0,"TEXCOORD_0":1},"mode":4,"indices":2,"material":0}]}],"materials":[{"pbrMetallicRoughness":{"baseColorFactor":[1,1,1,1],"metallicFactor":1,"roughnessFactor":1,"baseColorTexture":{"index":0,"texCoord":0},"metallicRoughnessTexture":{"index":1,"texCoord":0}},"alphaMode":"OPAQUE"}],"textures":[{"source":0,"sampler":0},{"source":1,"sampler":0}],"images":[{"uri":"70785994_2048x2048_11563080508590297124.png"},{"uri":"3582862299_512x512_12154559721164250551.png"}],"samplers":[{"magFilter":9729,"wrapS":10497,"wrapT":10497}],"accessors":[{"bufferView":0,"byteOffset":0,"count":11937,"componentType":5126,"type":"VEC3","min":[-0.087770812213420868,-0.052855338901281357,-6.4620921946811904E-9],"max":[0.087770812213420868,0.052855324000120163,0.0998549833893776]},{"bufferView":1,"byteOffset":0,"count":11937,"componentType":5126,"type":"VEC2"},{"bufferView":2,"byteOffset":0,"count":58353,"componentType":5125,"type":"SCALAR"}],"bufferViews":[{"buffer":0,"byteOffset":0,"byteLength":143244,"byteStride":12,"target":34962},{"buffer":0,"byteOffset":143244,"byteLength":95496,"byteStride":8,"target":34962},{"buffer":0,"byteOffset":238740,"byteLength":233412,"target":34963}],"buffers":[{"byteLength":472152,"uri":"camera.bin"}]}