{"asset":{"generator":"3D Builder","version":"2.0"},"scene":0,"scenes":[{"nodes":[0]}],"nodes":[{"mesh":0,"matrix":[0.22952881455421448,0,0,0,0,-2.7361966914440927E-8,-0.22952878475189209,0,0,0.22952878475189209,-2.7361966914440927E-8,0,-0.0015554589917883277,4.3711275793612E-5,-5.2107905663956178E-12,1]}],"meshes":[{"primitives":[{"attributes":{"POSITION":0,"TEXCOORD_0":1},"mode":4,"indices":2,"material":0}]}],"materials":[{"pbrMetallicRoughness":{"baseColorFactor":[1,1,1,1],"metallicFactor":1,"roughnessFactor":1,"baseColorTexture":{"index":0,"texCoord":0},"metallicRoughnessTexture":{"index":1,"texCoord":0}},"alphaMode":"OPAQUE"}],"textures":[{"source":0,"sampler":0},{"source":1,"sampler":0}],"images":[{"uri":"1703386345_2048x2048_1535343169432686052.png"},{"uri":"920499473_1024x1024_18213029355133818487.png"}],"samplers":[{"magFilter":9729,"wrapS":10497,"wrapT":10497}],"accessors":[{"bufferView":0,"byteOffset":0,"count":1186,"componentType":5126,"type":"VEC3","min":[-0.0665983185172081,-0.11403316259384155,-0.00019043918291572481],"max":[0.080151863396167755,0.11403316259384155,0.039551537483930588]},{"bufferView":1,"byteOffset":0,"count":1186,"componentType":5126,"type":"VEC2"},{"bufferView":2,"byteOffset":0,"count":6048,"componentType":5125,"type":"SCALAR"}],"bufferViews":[{"buffer":0,"byteOffset":0,"byteLength":14232,"byteStride":12,"target":34962},{"buffer":0,"byteOffset":14232,"byteLength":9488,"byteStride":8,"target":34962},{"buffer":0,"byteOffset":23720,"byteLength":24192,"target":34963}],"buffers":[{"byteLength":47912,"uri":"pingpong.bin"}]}