{"asset":{"generator":"3D Builder","version":"2.0"},"scene":0,"scenes":[{"nodes":[0]}],"nodes":[{"mesh":0,"matrix":[9.7926044464111328,0,0,0,0,-1.1673694189084927E-6,-9.7926034927368164,0,0,9.7926034927368164,-1.1673694189084927E-6,0,-1.5861585779930465E-5,-1.4003152273289743E-6,9.7419897429062985E-6,1]}],"meshes":[{"primitives":[{"attributes":{"POSITION":0,"TEXCOORD_0":1},"mode":4,"indices":2,"material":0}]}],"materials":[{"pbrMetallicRoughness":{"baseColorFactor":[1,1,1,1],"metallicFactor":1,"roughnessFactor":1,"baseColorTexture":{"index":0,"texCoord":0},"metallicRoughnessTexture":{"index":1,"texCoord":0}},"alphaMode":"OPAQUE"}],"textures":[{"source":0,"sampler":0},{"source":1,"sampler":0}],"images":[{"uri":"701563639_2048x2048_17026833529806663332.png"},{"uri":"4213644063_512x512_17618312742380616759.png"}],"samplers":[{"magFilter":9729,"wrapS":10497,"wrapT":10497}],"accessors":[{"bufferView":0,"byteOffset":0,"count":6855,"componentType":5126,"type":"VEC3","min":[-0.0013394912239164114,-0.00083724356954917312,1.4299827455488412E-7],"max":[0.0013384197372943163,0.00083658477524295449,0.0026662666350603104]},{"bufferView":1,"byteOffset":0,"count":6855,"componentType":5126,"type":"VEC2"},{"bufferView":2,"byteOffset":0,"count":32724,"componentType":5125,"type":"SCALAR"}],"bufferViews":[{"buffer":0,"byteOffset":0,"byteLength":82260,"byteStride":12,"target":34962},{"buffer":0,"byteOffset":82260,"byteLength":54840,"byteStride":8,"target":34962},{"buffer":0,"byteOffset":137100,"byteLength":130896,"target":34963}],"buffers":[{"byteLength":267996,"uri":"cup.bin"}]}