{"asset":{"generator":"3D Builder","version":"2.0"},"scene":0,"scenes":[{"nodes":[0]}],"nodes":[{"children":[1,2,3]},{"mesh":0,"matrix":[39.370079040527344,0,0,0,0,-4.6932791519793682E-6,-39.370075225830078,0,0,39.370075225830078,-4.6932791519793682E-6,0,-0.010066112503409386,1.5893141025458135E-8,0.10558204352855682,1]},{"mesh":1,"matrix":[39.370079040527344,0,0,0,0,-4.6932791519793682E-6,-39.370075225830078,0,0,39.370075225830078,-4.6932791519793682E-6,0,-0.010066112503409386,1.5893141025458135E-8,0.10558204352855682,1]},{"mesh":2,"matrix":[39.370079040527344,0,0,0,0,-4.6932791519793682E-6,-39.370075225830078,0,0,39.370075225830078,-4.6932791519793682E-6,0,-0.010066112503409386,1.5893141025458135E-8,0.10558204352855682,1]}],"meshes":[{"primitives":[{"attributes":{"POSITION":0,"TEXCOORD_0":1},"mode":4,"indices":2,"material":0}]},{"primitives":[{"attributes":{"POSITION":3,"TEXCOORD_0":4},"mode":4,"indices":5,"material":0}]},{"primitives":[{"attributes":{"POSITION":6,"TEXCOORD_0":7},"mode":4,"indices":8,"material":0}]}],"materials":[{"pbrMetallicRoughness":{"baseColorFactor":[1,1,1,1],"metallicFactor":1,"roughnessFactor":1,"baseColorTexture":{"index":0,"texCoord":0},"metallicRoughnessTexture":{"index":1,"texCoord":0}},"alphaMode":"OPAQUE"}],"textures":[{"source":0,"sampler":0},{"source":1,"sampler":0}],"images":[{"uri":"2838500833_2048x2048_6195987693227547908.png"},{"uri":"2055613961_2048x2048_17319628118832143767.png"}],"samplers":[{"magFilter":9729,"wrapS":10497,"wrapT":10497}],"accessors":[{"bufferView":0,"byteOffset":0,"count":4621,"componentType":5126,"type":"VEC3","min":[-0.0092254569754004478,0.0026332342531532049,-8.3992202082328049E-11],"max":[0.0092362109571695328,0.010316748172044754,0.015799367800354958]},{"bufferView":1,"byteOffset":0,"count":4621,"componentType":5126,"type":"VEC2"},{"bufferView":2,"byteOffset":0,"count":11772,"componentType":5125,"type":"SCALAR"},{"bufferView":3,"byteOffset":0,"count":6639,"componentType":5126,"type":"VEC3","min":[-0.0057288138195872307,-0.0049592596478760242,-8.3992202082328049E-11],"max":[0.0057168141938745975,-0.000324880238622427,0.00069022667594254017]},{"bufferView":4,"byteOffset":0,"count":6639,"componentType":5126,"type":"VEC2"},{"bufferView":5,"byteOffset":0,"count":29574,"componentType":5125,"type":"SCALAR"},{"bufferView":6,"byteOffset":0,"count":1486,"componentType":5126,"type":"VEC3","min":[0.00792402308434248,-0.0021680130157619715,-8.3992202082328049E-11],"max":[0.00973681453615427,0.001214856281876564,0.0011604910250753164]},{"bufferView":7,"byteOffset":0,"count":1486,"componentType":5126,"type":"VEC2"},{"bufferView":8,"byteOffset":0,"count":5376,"componentType":5125,"type":"SCALAR"}],"bufferViews":[{"buffer":0,"byteOffset":0,"byteLength":55452,"byteStride":12,"target":34962},{"buffer":0,"byteOffset":55452,"byteLength":36968,"byteStride":8,"target":34962},{"buffer":0,"byteOffset":92420,"byteLength":47088,"target":34963},{"buffer":0,"byteOffset":139508,"byteLength":79668,"byteStride":12,"target":34962},{"buffer":0,"byteOffset":219176,"byteLength":53112,"byteStride":8,"target":34962},{"buffer":0,"byteOffset":272288,"byteLength":118296,"target":34963},{"buffer":0,"byteOffset":390584,"byteLength":17832,"byteStride":12,"target":34962},{"buffer":0,"byteOffset":408416,"byteLength":11888,"byteStride":8,"target":34962},{"buffer":0,"byteOffset":420304,"byteLength":21504,"target":34963}],"buffers":[{"byteLength":441808,"uri":"computer.bin"}]}