{"asset":{"generator":"3D Builder","version":"2.0"},"scene":0,"scenes":[{"nodes":[0]}],"nodes":[{"mesh":0,"matrix":[0.99999994039535522,0,0,0,0,-1.1920928244535389E-7,-0.99999982118606567,0,0,0.99999982118606567,-1.1920928244535389E-7,0,0,2.9999998041319031E-9,-3.5762789824260628E-16,1]}],"meshes":[{"primitives":[{"attributes":{"POSITION":0,"TEXCOORD_0":1},"mode":4,"indices":2,"material":0}]}],"materials":[{"pbrMetallicRoughness":{"baseColorFactor":[1,1,1,1],"metallicFactor":0,"roughnessFactor":1,"baseColorTexture":{"index":0,"texCoord":0}},"alphaMode":"OPAQUE"}],"textures":[{"source":0,"sampler":0}],"images":[{"uri":"3110235605_2048x2048_6195987693227547908.png"}],"samplers":[{"magFilter":9729,"wrapS":10497,"wrapT":10497}],"accessors":[{"bufferView":0,"byteOffset":0,"count":3432,"componentType":5126,"type":"VEC3","min":[-0.099397510290145874,-0.11650879681110382,0.048546072095632553],"max":[0.09931771457195282,-0.046214800328016281,0.13856023550033569]},{"bufferView":1,"byteOffset":0,"count":3432,"componentType":5126,"type":"VEC2"},{"bufferView":2,"byteOffset":0,"count":12354,"componentType":5125,"type":"SCALAR"}],"bufferViews":[{"buffer":0,"byteOffset":0,"byteLength":41184,"byteStride":12,"target":34962},{"buffer":0,"byteOffset":41184,"byteLength":27456,"byteStride":8,"target":34962},{"buffer":0,"byteOffset":68640,"byteLength":49416,"target":34963}],"buffers":[{"byteLength":118056,"uri":"desk.bin"}]}