{
  "accessors": [
    {
      "bufferView": 2,
      "componentType": 5126,
      "count": 1580,
      "max": [
        0.6653473973274231,
        229.72962951660156,
        0.6644441485404968
      ],
      "min": [
        -0.6615440845489502,
        18.53384017944336,
        -0.7015130519866943
      ],
      "type": "VEC3"
    },
    {
      "bufferView": 2,
      "byteOffset": 18960,
      "componentType": 5126,
      "count": 1580,
      "max": [
        0.999005913734436,
        0.8286240100860596,
        0.9999904036521912
      ],
      "min": [
        -0.9999273419380188,
        -0.1544991284608841,
        -0.9999900460243225
      ],
      "type": "VEC3"
    },
    {
      "bufferView": 1,
      "componentType": 5126,
      "count": 1580,
      "max": [
        0.8035714030265808,
        0.4750000238418579
      ],
      "min": [
        0.6964284181594849,
        0.27500003576278687
      ],
      "type": "VEC2"
    },
    {
      "bufferView": 0,
      "componentType": 5125,
      "count": 2370,
      "type": "SCALAR"
    },
    {
      "bufferView": 2,
      "byteOffset": 37920,
      "componentType": 5126,
      "count": 48,
      "max": [
        0.6563035845756531,
        130.83602905273438,
        0.6644441485404968
      ],
      "min": [
        -0.6500841975212097,
        19.22469711303711,
        -0.6570942401885986
      ],
      "type": "VEC3"
    },
    {
      "bufferView": 2,
      "byteOffset": 38496,
      "componentType": 5126,
      "count": 48,
      "max": [
        0.9303402900695801,
        0.0012786443112418056,
        0.9628455638885498
      ],
      "min": [
        -0.9583664536476135,
        -0.0014421895612031221,
        -0.9871991872787476
      ],
      "type": "VEC3"
    },
    {
      "bufferView": 1,
      "byteOffset": 12640,
      "componentType": 5126,
      "count": 48,
      "max": [
        0.8035714030265808,
        0.4750000238418579
      ],
      "min": [
        0.6964285373687744,
        0.27500003576278687
      ],
      "type": "VEC2"
    },
    {
      "bufferView": 0,
      "byteOffset": 9480,
      "componentType": 5125,
      "count": 72,
      "type": "SCALAR"
    },
    {
      "bufferView": 2,
      "byteOffset": 39072,
      "componentType": 5126,
      "count": 48,
      "max": [
        0.6672972440719604,
        114.83684539794922,
        0.6253566145896912
      ],
      "min": [
        -0.6675518751144409,
        33.529178619384766,
        -0.6173554062843323
      ],
      "type": "VEC3"
    },
    {
      "bufferView": 2,
      "byteOffset": 39648,
      "componentType": 5126,
      "count": 48,
      "max": [
        0.9954949021339417,
        0.0010459455661475658,
        0.8556021451950073
      ],
      "min": [
        -0.9999554753303528,
        -0.001044499920681119,
        -0.8963111042976379
      ],
      "type": "VEC3"
    },
    {
      "bufferView": 1,
      "byteOffset": 13024,
      "componentType": 5126,
      "count": 48,
      "max": [
        0.8035714030265808,
        0.4750000238418579
      ],
      "min": [
        0.6964285373687744,
        0.27500003576278687
      ],
      "type": "VEC2"
    },
    {
      "bufferView": 0,
      "byteOffset": 9768,
      "componentType": 5125,
      "count": 72,
      "type": "SCALAR"
    },
    {
      "bufferView": 2,
      "byteOffset": 40224,
      "componentType": 5126,
      "count": 48,
      "max": [
        0.6672972440719604,
        98.83766174316406,
        0.5362361669540405
      ],
      "min": [
        -0.6675518751144409,
        49.49116516113281,
        -0.5263157486915588
      ],
      "type": "VEC3"
    },
    {
      "bufferView": 2,
      "byteOffset": 40800,
      "componentType": 5126,
      "count": 48,
      "max": [
        0.9966951012611389,
        0.0010457428870722651,
        0.6791020035743713
      ],
      "min": [
        -0.9991049766540527,
        -0.0010442867642268538,
        -0.7387334704399109
      ],
      "type": "VEC3"
    },
    {
      "bufferView": 1,
      "byteOffset": 13408,
      "componentType": 5126,
      "count": 48,
      "max": [
        0.8035714030265808,
        0.4750000238418579
      ],
      "min": [
        0.6964284777641296,
        0.27500003576278687
      ],
      "type": "VEC2"
    },
    {
      "bufferView": 0,
      "byteOffset": 10056,
      "componentType": 5125,
      "count": 72,
      "type": "SCALAR"
    },
    {
      "bufferView": 2,
      "byteOffset": 41376,
      "componentType": 5126,
      "count": 28,
      "max": [
        0.6581358909606934,
        82.83848571777344,
        0.40518537163734436
      ],
      "min": [
        -0.6553317904472351,
        60.677833557128906,
        -0.39444199204444885
      ],
      "type": "VEC3"
    },
    {
      "bufferView": 2,
      "byteOffset": 41712,
      "componentType": 5126,
      "count": 28,
      "max": [
        0.9352535009384155,
        0.0010455180890858173,
        0.5440259575843811
      ],
      "min": [
        -0.9718371629714966,
        -0.0010440880432724953,
        -0.5235388875007629
      ],
      "type": "VEC3"
    },
    {
      "bufferView": 1,
      "byteOffset": 13792,
      "componentType": 5126,
      "count": 28,
      "max": [
        0.8035714030265808,
        0.4750000238418579
      ],
      "min": [
        0.6964284777641296,
        0.27500003576278687
      ],
      "type": "VEC2"
    },
    {
      "bufferView": 0,
      "byteOffset": 10344,
      "componentType": 5125,
      "count": 42,
      "type": "SCALAR"
    },
    {
      "bufferView": 2,
      "byteOffset": 42048,
      "componentType": 5126,
      "count": 40,
      "max": [
        0.5746266841888428,
        229.72962951660156,
        0.6640669703483582
      ],
      "min": [
        -0.5664175748825073,
        129.48707580566406,
        -0.6578693389892578
      ],
      "type": "VEC3"
    },
    {
      "bufferView": 2,
      "byteOffset": 42528,
      "componentType": 5126,
      "count": 40,
      "max": [
        0.75938880443573,
        0.0014786079991608858,
        0.999991238117218
      ],
      "min": [
        -0.7437646389007568,
        -0.00014339324843604118,
        -0.9615293741226196
      ],
      "type": "VEC3"
    },
    {
      "bufferView": 1,
      "byteOffset": 14016,
      "componentType": 5126,
      "count": 40,
      "max": [
        0.7678572535514832,
        0.4750000238418579
      ],
      "min": [
        0.7321428656578064,
        0.27500003576278687
      ],
      "type": "VEC2"
    },
    {
      "bufferView": 0,
      "byteOffset": 10512,
      "componentType": 5125,
      "count": 60,
      "type": "SCALAR"
    },
    {
      "bufferView": 2,
      "byteOffset": 43008,
      "componentType": 5126,
      "count": 361,
      "max": [
        1.0,
        21.431795120239258,
        1.0065268278121948
      ],
      "min": [
        -1.0,
        -1.0622196197509766,
        -1.000855803489685
      ],
      "type": "VEC3"
    },
    {
      "bufferView": 2,
      "byteOffset": 47340,
      "componentType": 5126,
      "count": 361,
      "max": [
        1.0,
        1.0,
        1.0
      ],
      "min": [
        -1.0,
        -1.0,
        -1.0
      ],
      "type": "VEC3"
    },
    {
      "bufferView": 1,
      "byteOffset": 14336,
      "componentType": 5126,
      "count": 361,
      "max": [
        0.875,
        1.0
      ],
      "min": [
        0.125,
        0.0
      ],
      "type": "VEC2"
    },
    {
      "bufferView": 0,
      "byteOffset": 10752,
      "componentType": 5125,
      "count": 852,
      "type": "SCALAR"
    },
    {
      "bufferView": 2,
      "byteOffset": 51672,
      "componentType": 5126,
      "count": 132,
      "max": [
        0.7420477867126465,
        10.748483657836914,
        1.0106120109558105
      ],
      "min": [
        -0.6865234375,
        -0.7784774303436279,
        0.9999081492424011
      ],
      "type": "VEC3"
    },
    {
      "bufferView": 2,
      "byteOffset": 53256,
      "componentType": 5126,
      "count": 132,
      "max": [
        1.0,
        1.0,
        1.0
      ],
      "min": [
        -1.0,
        -1.0,
        -1.0
      ],
      "type": "VEC3"
    },
    {
      "bufferView": 1,
      "byteOffset": 17224,
      "componentType": 5126,
      "count": 132,
      "max": [
        0.3392857015132904,
        0.5
      ],
      "min": [
        0.1607142686843872,
        0.42500007152557373
      ],
      "type": "VEC2"
    },
    {
      "bufferView": 0,
      "byteOffset": 14160,
      "componentType": 5125,
      "count": 336,
      "type": "SCALAR"
    },
    {
      "bufferView": 2,
      "byteOffset": 54840,
      "componentType": 5126,
      "count": 64,
      "max": [
        0.0860619843006134,
        1.2820760011672974,
        1.282082438468933
      ],
      "min": [
        0.08606189489364624,
        -1.2820888757705688,
        -1.282082200050354
      ],
      "type": "VEC3"
    },
    {
      "bufferView": 2,
      "byteOffset": 55608,
      "componentType": 5126,
      "count": 64,
      "max": [
        -1.0,
        2.2478923611402024e-08,
        -4.174845802396021e-09
      ],
      "min": [
        -1.0,
        2.2478923611402024e-08,
        -4.174845802396021e-09
      ],
      "type": "VEC3"
    },
    {
      "bufferView": 1,
      "byteOffset": 18280,
      "componentType": 5126,
      "count": 64,
      "max": [
        0.6983274817466736,
        0.7686934471130371
      ],
      "min": [
        0.2592599093914032,
        0.12403750419616699
      ],
      "type": "VEC2"
    },
    {
      "bufferView": 0,
      "byteOffset": 15504,
      "componentType": 5125,
      "count": 186,
      "type": "SCALAR"
    },
    {
      "bufferView": 2,
      "byteOffset": 56376,
      "componentType": 5126,
      "count": 11449,
      "max": [
        0.0860619843006134,
        1.345415711402893,
        1.3454220294952393
      ],
      "min": [
        -0.08606827259063721,
        -1.345428466796875,
        -1.3454219102859497
      ],
      "type": "VEC3"
    },
    {
      "bufferView": 2,
      "byteOffset": 193764,
      "componentType": 5126,
      "count": 11449,
      "max": [
        0.923880398273468,
        1.0,
        1.0
      ],
      "min": [
        -0.9238803386688232,
        -1.0,
        -1.0
      ],
      "type": "VEC3"
    },
    {
      "bufferView": 1,
      "byteOffset": 18792,
      "componentType": 5126,
      "count": 11449,
      "max": [
        0.9996622800827026,
        0.5
      ],
      "min": [
        0.0,
        0.0
      ],
      "type": "VEC2"
    },
    {
      "bufferView": 0,
      "byteOffset": 16248,
      "componentType": 5125,
      "count": 17280,
      "type": "SCALAR"
    },
    {
      "bufferView": 2,
      "byteOffset": 331152,
      "componentType": 5126,
      "count": 64,
      "max": [
        -0.08606815338134766,
        1.2820760011672974,
        1.282082438468933
      ],
      "min": [
        -0.08606827259063721,
        -1.2820888757705688,
        -1.282082200050354
      ],
      "type": "VEC3"
    },
    {
      "bufferView": 2,
      "byteOffset": 331920,
      "componentType": 5126,
      "count": 64,
      "max": [
        1.0,
        -4.7511608869399424e-08,
        6.5345395761085e-09
      ],
      "min": [
        1.0,
        -4.7511608869399424e-08,
        6.5345395761085e-09
      ],
      "type": "VEC3"
    },
    {
      "bufferView": 1,
      "byteOffset": 110384,
      "componentType": 5126,
      "count": 64,
      "max": [
        1.037010908126831,
        1.2027950286865234
      ],
      "min": [
        -0.0649653896689415,
        -0.2420201301574707
      ],
      "type": "VEC2"
    },
    {
      "bufferView": 0,
      "byteOffset": 85368,
      "componentType": 5125,
      "count": 186,
      "type": "SCALAR"
    },
    {
      "bufferView": 2,
      "byteOffset": 332688,
      "componentType": 5126,
      "count": 919,
      "max": [
        6.241000175476074,
        0.0,
        0.009000000543892384
      ],
      "min": [
        0.0,
        0.0,
        -0.6860000491142273
      ],
      "type": "VEC3"
    },
    {
      "bufferView": 2,
      "byteOffset": 343716,
      "componentType": 5126,
      "count": 919,
      "max": [
        0.0,
        1.0,
        -0.0
      ],
      "min": [
        0.0,
        1.0,
        -0.0
      ],
      "type": "VEC3"
    },
    {
      "bufferView": 1,
      "byteOffset": 110896,
      "componentType": 5126,
      "count": 919,
      "max": [
        1.0,
        1.0
      ],
      "min": [
        0.0,
        1.0
      ],
      "type": "VEC2"
    },
    {
      "bufferView": 0,
      "byteOffset": 86112,
      "componentType": 5125,
      "count": 2718,
      "type": "SCALAR"
    }
  ],
  "asset": {
    "extras": {
      "author": "lzy.nrd (https://sketchfab.com/lzy.nrd)",
      "license": "CC-BY-4.0 (http://creativecommons.org/licenses/by/4.0/)",
      "source": "https://sketchfab.com/3d-models/trophy-680d8496c3f54f79956ef0fdf25c7637",
      "title": "Trophy"
    },
    "generator": "Sketchfab-11.31.0",
    "version": "2.0"
  },
  "bufferViews": [
    {
      "buffer": 0,
      "byteLength": 96984,
      "name": "floatBufferViews",
      "target": 34963
    },
    {
      "buffer": 0,
      "byteLength": 118248,
      "byteOffset": 96984,
      "byteStride": 8,
      "name": "floatBufferViews",
      "target": 34962
    },
    {
      "buffer": 0,
      "byteLength": 354744,
      "byteOffset": 215232,
      "byteStride": 12,
      "name": "floatBufferViews",
      "target": 34962
    }
  ],
  "buffers": [
    {
      "byteLength": 569976,
      "uri": "scene.bin"
    }
  ],
  "materials": [
    {
      "doubleSided": true,
      "name": "material_0",
      "pbrMetallicRoughness": {
        "metallicFactor": 0.0,
        "roughnessFactor": 0.6
      }
    },
    {
      "doubleSided": true,
      "name": "Material",
      "pbrMetallicRoughness": {
        "baseColorFactor": [
          0.302119,
          0.193143,
          0.0684825,
          1.0
        ],
        "roughnessFactor": 0.114799
      }
    },
    {
      "doubleSided": true,
      "name": "Material.005",
      "pbrMetallicRoughness": {
        "baseColorFactor": [
          0.0,
          0.000538515,
          0.209975,
          1.0
        ],
        "metallicFactor": 0.0,
        "roughnessFactor": 0.5
      }
    },
    {
      "doubleSided": true,
      "name": "Material.006",
      "pbrMetallicRoughness": {
        "baseColorFactor": [
          0.0,
          0.0250395,
          0.8,
          1.0
        ],
        "metallicFactor": 0.0,
        "roughnessFactor": 0.5
      }
    },
    {
      "doubleSided": true,
      "name": "Material.007",
      "pbrMetallicRoughness": {
        "baseColorFactor": [
          0.0,
          0.00390696,
          0.433587,
          1.0
        ],
        "metallicFactor": 0.0,
        "roughnessFactor": 0.5
      }
    },
    {
      "doubleSided": true,
      "name": "Material.008",
      "pbrMetallicRoughness": {
        "baseColorFactor": [
          0.0,
          0.0,
          0.0,
          1.0
        ],
        "metallicFactor": 0.0,
        "roughnessFactor": 0.5
      }
    },
    {
      "doubleSided": true,
      "name": "Material.009",
      "pbrMetallicRoughness": {
        "baseColorFactor": [
          0.8,
          0.8,
          0.8,
          1.0
        ],
        "metallicFactor": 0.0,
        "roughnessFactor": 0.5
      }
    },
    {
      "doubleSided": true,
      "name": "Material.003",
      "pbrMetallicRoughness": {
        "metallicFactor": 0.0153257,
        "roughnessFactor": 0.0
      }
    },
    {
      "doubleSided": true,
      "name": "Material.004",
      "pbrMetallicRoughness": {
        "baseColorFactor": [
          0.21685,
          0.21685,
          0.21685,
          1.0
        ],
        "roughnessFactor": 0.1875
      }
    },
    {
      "doubleSided": true,
      "name": "Material.001"
    },
    {
      "doubleSided": true,
      "name": "Material.002",
      "pbrMetallicRoughness": {
        "metallicFactor": 0.75,
        "roughnessFactor": 0.175
      }
    },
    {
      "doubleSided": true,
      "name": "Material.010",
      "pbrMetallicRoughness": {
        "metallicFactor": 0.0,
        "roughnessFactor": 0.5
      }
    }
  ],
  "meshes": [
    {
      "name": "Object_0",
      "primitives": [
        {
          "attributes": {
            "NORMAL": 1,
            "POSITION": 0,
            "TEXCOORD_0": 2
          },
          "indices": 3,
          "material": 1,
          "mode": 4
        }
      ]
    },
    {
      "name": "Object_1",
      "primitives": [
        {
          "attributes": {
            "NORMAL": 5,
            "POSITION": 4,
            "TEXCOORD_0": 6
          },
          "indices": 7,
          "material": 2,
          "mode": 4
        }
      ]
    },
    {
      "name": "Object_2",
      "primitives": [
        {
          "attributes": {
            "NORMAL": 9,
            "POSITION": 8,
            "TEXCOORD_0": 10
          },
          "indices": 11,
          "material": 3,
          "mode": 4
        }
      ]
    },
    {
      "name": "Object_3",
      "primitives": [
        {
          "attributes": {
            "NORMAL": 13,
            "POSITION": 12,
            "TEXCOORD_0": 14
          },
          "indices": 15,
          "material": 4,
          "mode": 4
        }
      ]
    },
    {
      "name": "Object_4",
      "primitives": [
        {
          "attributes": {
            "NORMAL": 17,
            "POSITION": 16,
            "TEXCOORD_0": 18
          },
          "indices": 19,
          "material": 5,
          "mode": 4
        }
      ]
    },
    {
      "name": "Object_5",
      "primitives": [
        {
          "attributes": {
            "NORMAL": 21,
            "POSITION": 20,
            "TEXCOORD_0": 22
          },
          "indices": 23,
          "material": 6,
          "mode": 4
        }
      ]
    },
    {
      "name": "Object_6",
      "primitives": [
        {
          "attributes": {
            "NORMAL": 25,
            "POSITION": 24,
            "TEXCOORD_0": 26
          },
          "indices": 27,
          "material": 7,
          "mode": 4
        }
      ]
    },
    {
      "name": "Object_7",
      "primitives": [
        {
          "attributes": {
            "NORMAL": 29,
            "POSITION": 28,
            "TEXCOORD_0": 30
          },
          "indices": 31,
          "material": 8,
          "mode": 4
        }
      ]
    },
    {
      "name": "Object_8",
      "primitives": [
        {
          "attributes": {
            "NORMAL": 33,
            "POSITION": 32,
            "TEXCOORD_0": 34
          },
          "indices": 35,
          "material": 9,
          "mode": 4
        }
      ]
    },
    {
      "name": "Object_9",
      "primitives": [
        {
          "attributes": {
            "NORMAL": 37,
            "POSITION": 36,
            "TEXCOORD_0": 38
          },
          "indices": 39,
          "material": 10,
          "mode": 4
        }
      ]
    },
    {
      "name": "Object_10",
      "primitives": [
        {
          "attributes": {
            "NORMAL": 41,
            "POSITION": 40,
            "TEXCOORD_0": 42
          },
          "indices": 43,
          "material": 11,
          "mode": 4
        }
      ]
    },
    {
      "name": "Object_11",
      "primitives": [
        {
          "attributes": {
            "NORMAL": 45,
            "POSITION": 44,
            "TEXCOORD_0": 46
          },
          "indices": 47,
          "material": 0,
          "mode": 4
        }
      ]
    }
  ],
  "nodes": [
    {
      "children": [
        1
      ],
      "matrix": [
        1.0,
        0.0,
        0.0,
        0.0,
        0.0,
        2.220446049250313e-16,
        -1.0,
        0.0,
        0.0,
        1.0,
        2.220446049250313e-16,
        0.0,
        0.0,
        0.0,
        0.0,
        1.0
      ],
      "name": "Sketchfab_model"
    },
    {
      "children": [
        2
      ],
      "name": "root"
    },
    {
      "children": [
        3,
        10,
        13,
        17
      ],
      "matrix": [
        1.0,
        0.0,
        0.0,
        0.0,
        0.0,
        2.220446049250313e-16,
        1.0,
        0.0,
        0.0,
        -1.0,
        2.220446049250313e-16,
        0.0,
        0.0,
        0.0,
        0.0,
        1.0
      ],
      "name": "GLTF_SceneRootNode"
    },
    {
      "children": [
        4,
        5,
        6,
        7,
        8,
        9
      ],
      "matrix": [
        1.718200922012329,
        0.0,
        0.0,
        0.0,
        0.0,
        0.05218428000807762,
        0.0,
        0.0,
        0.0,
        0.0,
        2.5232298374176025,
        0.0,
        0.0,
        -0.4017431139945984,
        0.0,
        1.0
      ],
      "name": "Cube_0"
    },
    {
      "mesh": 0,
      "name": "Object_4"
    },
    {
      "mesh": 1,
      "name": "Object_5"
    },
    {
      "mesh": 2,
      "name": "Object_6"
    },
    {
      "mesh": 3,
      "name": "Object_7"
    },
    {
      "mesh": 4,
      "name": "Object_8"
    },
    {
      "mesh": 5,
      "name": "Object_9"
    },
    {
      "children": [
        11,
        12
      ],
      "matrix": [
        1.718200922012329,
        0.0,
        0.0,
        0.0,
        0.0,
        0.05218428000807762,
        0.0,
        0.0,
        0.0,
        0.0,
        2.5232298374176025,
        0.0,
        0.0,
        0.0,
        0.0,
        1.0
      ],
      "name": "Cube.001_1"
    },
    {
      "mesh": 6,
      "name": "Object_11"
    },
    {
      "mesh": 7,
      "name": "Object_12"
    },
    {
      "children": [
        14,
        15,
        16
      ],
      "matrix": [
        0.9776351051817852,
        0.0,
        0.21030834770926177,
        0.0,
        0.0,
        1.0,
        0.0,
        0.0,
        -0.21030834770926177,
        0.0,
        0.9776351051817852,
        0.0,
        0.07943309843540192,
        10.086947441101074,
        -0.36252561211586,
        1.0
      ],
      "name": "Cylinder_2"
    },
    {
      "mesh": 8,
      "name": "Object_14"
    },
    {
      "mesh": 9,
      "name": "Object_15"
    },
    {
      "mesh": 10,
      "name": "Object_16"
    },
    {
      "children": [
        18
      ],
      "matrix": [
        0.33839374780654907,
        0.0,
        0.0,
        0.0,
        0.0,
        0.0,
        0.33839374780654907,
        0.0,
        0.0,
        -0.33839374780654907,
        0.0,
        0.0,
        -1.018524408340454,
        0.0,
        2.550605535507202,
        1.0
      ],
      "name": "Text.001_4"
    },
    {
      "mesh": 11,
      "name": "Object_18"
    }
  ],
  "scene": 0,
  "scenes": [
    {
      "name": "Sketchfab_Scene",
      "nodes": [
        0
      ]
    }
  ]
}
