{"asset":{"generator":"3D Builder","version":"2.0"},"scene":0,"scenes":[{"nodes":[0]}],"nodes":[{"mesh":0,"matrix":[0.68067324161529541,0,0,0,0,-8.1142573549186636E-8,-0.68067318201065063,0,0,0.68067318201065063,-8.1142573549186636E-8,0,2.6566429369268008E-5,-0.00018213805742561817,-0.0003553382121026516,1]}],"meshes":[{"primitives":[{"attributes":{"POSITION":0,"TEXCOORD_0":1},"mode":4,"indices":2,"material":0}]}],"materials":[{"pbrMetallicRoughness":{"baseColorFactor":[1,1,1,1],"metallicFactor":1,"roughnessFactor":1,"baseColorTexture":{"index":0,"texCoord":0},"metallicRoughnessTexture":{"index":1,"texCoord":0}},"alphaMode":"OPAQUE"}],"textures":[{"source":0,"sampler":0},{"source":1,"sampler":0}],"images":[{"uri":"2667777851_2048x2048_6195987693227547908.png"},{"uri":"1884890979_1024x1024_17319628118832143767.png"}],"samplers":[{"magFilter":9729,"wrapS":10497,"wrapT":10497}],"accessors":[{"bufferView":0,"byteOffset":0,"count":868,"componentType":5126,"type":"VEC3","min":[-0.060446459800004959,-0.0034943805076181889,0.0002675850992091],"max":[0.060368403792381287,0.0024503015447407961,0.15892332792282104]},{"bufferView":1,"byteOffset":0,"count":868,"componentType":5126,"type":"VEC2"},{"bufferView":2,"byteOffset":0,"count":4560,"componentType":5125,"type":"SCALAR"}],"bufferViews":[{"buffer":0,"byteOffset":0,"byteLength":10416,"byteStride":12,"target":34962},{"buffer":0,"byteOffset":10416,"byteLength":6944,"byteStride":8,"target":34962},{"buffer":0,"byteOffset":17360,"byteLength":18240,"target":34963}],"buffers":[{"byteLength":35600,"uri":"photoframe.bin"}]}