{"asset":{"generator":"3D Builder","version":"2.0"},"scene":0,"scenes":[{"nodes":[0]}],"nodes":[{"mesh":0,"matrix":[1.8008684321557666E-8,4.8583643774691154E-9,0.30213552713394165,0,0.30213561654090881,-6.8422330912198959E-8,5.5179672386884704E-8,0,6.8422188803651807E-8,0.30213922262191772,-4.8582009526398906E-9,0,0.0016137543134391308,3.0584505594788425E-8,1.0865704780371743E-8,1]}],"meshes":[{"primitives":[{"attributes":{"POSITION":0,"TEXCOORD_0":1},"mode":4,"indices":2,"material":0}]}],"materials":[{"pbrMetallicRoughness":{"baseColorFactor":[1,1,1,1],"metallicFactor":1,"roughnessFactor":1,"baseColorTexture":{"index":0,"texCoord":0},"metallicRoughnessTexture":{"index":1,"texCoord":0}},"alphaMode":"OPAQUE"}],"textures":[{"source":0,"sampler":0},{"source":1,"sampler":0}],"images":[{"uri":"4183673213_2048x2048_11563080508590297124.png"},{"uri":"3400786341_512x512_12154559721164250551.png"}],"samplers":[{"magFilter":9729,"wrapS":10497,"wrapT":10497}],"accessors":[{"bufferView":0,"byteOffset":0,"count":26327,"componentType":5126,"type":"VEC3","min":[-0.072653323411941528,-0.2658577561378479,-1.9531455563992495E-8],"max":[0.072653323411941528,0.25517475605010986,0.30866649746894836]},{"bufferView":1,"byteOffset":0,"count":26327,"componentType":5126,"type":"VEC2"},{"bufferView":2,"byteOffset":0,"count":101172,"componentType":5125,"type":"SCALAR"}],"bufferViews":[{"buffer":0,"byteOffset":0,"byteLength":315924,"byteStride":12,"target":34962},{"buffer":0,"byteOffset":315924,"byteLength":210616,"byteStride":8,"target":34962},{"buffer":0,"byteOffset":526540,"byteLength":404688,"target":34963}],"buffers":[{"byteLength":931228,"uri":"bike.bin"}]}